<?xml version="1.0" encoding="UTF-8"?>
<!DOCTYPE svg PUBLIC "-//W3C//DTD SVG 1.1//EN" "http://www.w3.org/Graphics/SVG/1.1/DTD/svg11.dtd">
<!-- Creator: CorelDRAW X6 -->
<svg xmlns="http://www.w3.org/2000/svg" xml:space="preserve" width="210mm" height="297mm" version="1.1" style="shape-rendering:geometricPrecision; text-rendering:geometricPrecision; image-rendering:optimizeQuality; fill-rule:evenodd; clip-rule:evenodd"
viewBox="0 0 21000 29700"
 xmlns:xlink="http://www.w3.org/1999/xlink">
 <defs>
  <style type="text/css">
   <![CDATA[
    .fil4 {fill:#2B2A29}
    .fil2 {fill:#2B2A29}
    .fil0 {fill:#C5C6C6}
    .fil3 {fill:#2B2A29;fill-rule:nonzero}
    .fil1 {fill:#2B2A29;fill-rule:nonzero}
    .fil5 {fill:#38AC51;fill-rule:nonzero}
   ]]>
  </style>
 </defs>
 <g id="Слой_x0020_1">
  <metadata id="CorelCorpID_0Corel-Layer"/>
  <path class="fil0" d="M10883 14345c4017,-72 7293,535 7317,1356 25,820 -3211,1544 -7228,1616 -4016,72 -7292,-535 -7317,-1356 -24,-820 3212,-1544 7228,-1616z"/>
  <path class="fil1" d="M12686 6917c-397,-36 -669,-220 -843,-489 -120,-185 -179,-342 -204,-580l-633 48c41,327 -1,648 -130,905 -138,278 -372,480 -702,543 -27,5 -49,8 -65,10 -350,45 -673,-69 -928,-287 -202,-173 -361,-412 -454,-689l0 0c-728,200 -1225,467 -1747,846 -1135,822 -1878,2092 -1736,3774 300,2346 2342,3182 5385,3101 1839,-235 3718,-1114 4432,-1810 1565,-1522 1343,-3042 213,-4625 -414,-580 -895,-925 -1579,-1292l0 0c-87,130 -193,245 -314,336 -198,149 -434,232 -695,209zm-1070 -1438c63,-720 558,-1144 1266,-1083 346,31 686,189 890,461 160,212 216,485 192,762 -11,115 -35,231 -71,344l50 18c2857,1498 3537,4906 1365,6647 -2046,1501 -4335,2141 -6708,1744 -2246,-376 -3851,-1465 -3801,-3981 42,-2099 1707,-3686 3850,-4386 -17,-405 228,-748 567,-955 138,-83 290,-144 445,-177 158,-33 322,-38 480,-9 323,60 611,255 763,629 222,-38 712,-14 712,-14zm-1927 -226c-1129,249 -660,1883 385,1749 978,-191 933,-2059 -385,-1749zm2421 1062c830,1010 1994,-569 1369,-1287 -183,-244 -626,-361 -913,-290 -685,184 -749,1139 -456,1577z"/>
  <path class="fil2" d="M9974 5570c217,-28 416,127 444,344 28,218 -203,484 -421,512 -218,28 -408,-128 -436,-346 -27,-218 195,-482 413,-510z"/>
  <path class="fil2" d="M12873 5168c624,-79 511,844 -54,861 -119,3 -289,-78 -347,-375 -51,-258 185,-459 401,-486z"/>
  <path class="fil3" d="M1965 9370l16 3617 0 0c10,361 239,589 528,687 124,42 257,62 391,60 133,-2 266,-26 388,-72 282,-105 500,-330 499,-668 -12,-550 15,-874 183,-1096 174,-229 461,-315 964,-385l46 326c-413,58 -640,117 -746,258 -112,147 -129,417 -118,891l0 3c3,500 -309,829 -714,980 -156,58 -327,89 -497,92 -172,3 -343,-23 -502,-77 -411,-140 -737,-467 -751,-990l0 -4 -16 -3620 329 -2z"/>
  <path class="fil3" d="M1244 7578l1226 0c214,0 409,87 550,228 141,141 228,336 228,550l0 1226c0,214 -87,409 -228,550 -141,141 -336,228 -550,228l-1226 0c-214,0 -409,-87 -550,-228 -141,-141 -228,-336 -228,-550l0 -1226c0,-214 87,-409 228,-550 141,-141 336,-228 550,-228zm1226 330l-1226 0c-123,0 -235,50 -316,132 -82,81 -132,193 -132,316l0 1226c0,123 50,235 132,316 81,81 193,132 316,132l1226 0c123,0 235,-51 316,-132 81,-81 132,-193 132,-316l0 -1226c0,-123 -51,-235 -132,-316 -81,-82 -193,-132 -316,-132z"/>
  <path class="fil2" d="M1857 8288c376,0 681,305 681,681 0,376 -305,681 -681,681 -376,0 -681,-305 -681,-681 0,-376 305,-681 681,-681z"/>
  <path class="fil3" d="M9908 19520c-84,160 -184,292 -301,398 -135,123 -280,192 -432,207 -91,9 -187,-25 -290,-100 -103,-76 -164,-202 -186,-378 -15,-124 -3,-316 36,-575 36,-213 48,-373 35,-481 36,-93 104,-144 204,-154 68,-7 125,8 170,44 45,36 71,75 76,116 9,74 -8,183 -49,326 -25,85 -47,204 -68,357 -22,153 -30,251 -25,293 18,140 58,206 123,199 102,-10 230,-111 382,-303 153,-192 245,-382 275,-571 5,-32 11,-62 16,-91l0 -4c0,-23 5,-44 14,-63 22,-98 44,-167 68,-208 34,-59 89,-93 164,-100 123,-12 191,42 206,164 2,18 -4,54 -17,110 -13,55 -25,103 -36,146 -6,354 16,930 261,1179 78,66 79,175 1,243 -78,68 -205,70 -284,3 -200,-204 -298,-474 -343,-757z"/>
  <path class="fil3" d="M2924 18801c-20,45 -39,90 -57,136 -70,174 -138,324 -203,452 -21,28 -51,45 -90,51 -40,6 -73,-9 -106,-7 -233,10 -149,-115 -107,-231l242 -467c-121,22 -280,73 -476,153 -206,83 -758,473 -835,491 -73,17 -343,-117 -207,-301 41,-56 374,-249 534,-335 161,-87 338,-152 530,-196l345 -83c-43,-75 -123,-185 -238,-330 -146,-185 -230,-311 -252,-376 -23,-66 -26,-122 -10,-167 16,-44 47,-78 95,-100 47,-22 88,-27 123,-15 16,5 45,26 85,62 40,37 65,69 76,97 180,352 313,584 400,698 63,-153 102,-275 119,-366 4,-25 14,-60 30,-104 19,-54 55,-90 107,-108 51,-18 105,-18 160,0 65,22 104,49 118,80 13,31 9,80 -14,143 -3,10 -35,82 -94,215 -43,97 -68,154 -74,171l-29 80c83,-28 204,-85 366,-170 259,-137 421,-217 489,-241 67,-24 275,-109 303,-99 109,36 118,304 -79,363 -210,63 -219,92 -411,183l-49 24c-163,75 -314,139 -455,191 74,90 182,242 325,459 25,39 62,90 108,151 101,139 140,244 114,316 -40,113 -113,152 -218,117 -98,-33 -255,-258 -472,-675l-108 -202c-14,-26 -43,-46 -85,-60z"/>
  <path class="fil3" d="M4701 18815c247,-216 481,-313 702,-290 146,15 264,70 355,166 89,96 129,199 118,310 -27,260 -192,488 -496,682 -303,194 -579,278 -827,253 -139,-15 -239,-80 -299,-196 -61,-117 -81,-275 -60,-474 35,-341 134,-676 296,-1005 15,-32 28,-62 40,-92 16,-39 59,-69 130,-89 71,-19 122,-27 154,-24 34,3 64,21 88,52 24,31 33,67 29,106 -3,29 -33,110 -89,245 -79,182 -125,301 -141,356zm-76 355c-13,55 -23,105 -27,149 -13,126 -6,204 22,235 29,30 57,46 86,49 93,10 235,-36 424,-139 191,-101 293,-226 309,-374 6,-64 -6,-117 -36,-159 -30,-42 -71,-66 -122,-71 -173,-18 -351,58 -533,227 -61,56 -102,84 -123,83z"/>
  <path class="fil4" d="M6536 18444c-86,336 -214,947 -20,1253 61,81 37,187 -54,238 -92,51 -216,27 -278,-54 -280,-444 -161,-1042 -40,-1514 21,-93 127,-151 235,-130 108,22 179,114 157,207z"/>
  <path class="fil4" d="M8292 18110c-747,-11 -801,172 -1000,775 246,-217 481,-313 702,-290 146,15 264,70 354,166 90,96 130,199 118,310 -27,260 -192,488 -495,682 -303,194 -579,278 -827,253 -140,-15 -239,-80 -299,-197 -61,-116 -81,-274 -60,-473 35,-340 133,-674 294,-1003 101,-234 249,-352 502,-472 179,-85 887,-194 900,118 4,100 -85,130 -189,131zm-1076 1130c-14,55 -23,105 -28,149 -13,126 -5,204 23,235 28,30 57,46 86,49 93,10 234,-36 424,-139 190,-101 293,-226 308,-374 7,-64 -5,-117 -35,-159 -30,-42 -71,-66 -123,-71 -172,-18 -350,58 -533,227 -61,56 -102,83 -122,83z"/>
  <path class="fil3" d="M12005 19386c-70,192 -165,354 -283,484 -123,135 -260,218 -411,248 -89,18 -188,-6 -297,-71 -110,-66 -184,-185 -222,-358 -28,-123 -34,-314 -20,-576 15,-215 11,-376 -13,-482 27,-96 90,-154 188,-173 67,-14 126,-4 174,27 49,32 78,68 87,108 16,73 10,183 -17,329 -16,87 -27,208 -33,363 -6,154 -5,252 4,293 31,137 78,199 141,187 101,-20 218,-133 351,-339 134,-206 207,-405 218,-595 13,-187 33,-311 62,-374 28,-63 80,-101 154,-116 121,-24 194,24 221,143 4,18 1,55 -6,112l-5 30c24,346 97,964 378,1199 84,58 95,167 24,242 -71,75 -197,89 -281,31 -218,-182 -341,-438 -414,-712z"/>
  <path class="fil3" d="M14814 19819c-9,89 -12,251 -9,485 3,235 7,392 13,472 6,79 -13,151 -55,214 -43,63 -85,98 -126,105 -51,7 -104,-2 -160,-30 -56,-28 -87,-63 -94,-105 -13,-85 -15,-186 -5,-302 69,-659 57,-1325 -35,-1998l-5 -31c-21,-131 -30,-220 -29,-267 2,-47 23,-96 64,-146 41,-50 94,-80 159,-90 54,-9 102,7 144,46 42,40 70,103 83,188 14,86 22,241 22,462 95,-215 219,-401 374,-557 155,-157 305,-246 449,-270 127,-20 242,5 344,74 103,71 164,169 185,297 55,340 -38,673 -277,998 -239,324 -498,508 -776,553 -129,21 -218,-12 -266,-98zm781 -1454c-139,22 -298,177 -478,463 -181,286 -260,501 -236,644 5,37 31,67 74,90 44,22 93,30 144,21 144,-23 293,-155 446,-395 153,-240 213,-459 182,-654 -11,-66 -29,-112 -55,-137 -26,-25 -53,-36 -77,-32zm1242 78c161,-289 352,-462 571,-518 145,-38 278,-28 398,30 119,57 193,140 221,247 65,252 -14,522 -237,810 -223,288 -457,463 -704,527 -139,35 -256,10 -355,-78 -98,-87 -172,-227 -222,-420 -85,-330 -107,-677 -67,-1041 3,-34 6,-67 6,-99 2,-42 33,-85 94,-129 61,-42 107,-68 139,-76 34,-9 68,-3 102,17 34,21 55,50 65,88 7,28 7,115 0,260 -11,198 -15,325 -11,382zm51 357c6,56 15,106 26,148 31,123 66,193 103,211 38,18 71,24 100,16 92,-23 212,-116 358,-279 146,-162 201,-314 164,-457 -16,-62 -45,-107 -89,-135 -43,-29 -91,-37 -142,-24 -172,45 -316,177 -432,399 -38,74 -68,114 -88,121zm1705 -175c17,66 50,148 100,245 8,17 14,32 17,44 6,24 -9,62 -47,115 -39,53 -86,86 -141,101 -147,37 -247,-47 -300,-254 -28,-108 -49,-215 -61,-321 -12,-105 -26,-303 -42,-595 -9,-155 -18,-250 -27,-284 -20,-78 -18,-147 5,-208 23,-61 66,-99 131,-116 78,-20 141,-18 192,5 50,24 80,55 90,96 11,41 12,136 4,285 -16,324 10,619 79,887zm960 79c7,89 32,248 76,479 44,231 76,385 95,462 20,77 14,151 -16,220 -31,70 -67,111 -105,126 -49,16 -104,16 -163,-1 -60,-18 -97,-47 -111,-87 -29,-82 -48,-181 -58,-297 -48,-661 -177,-1314 -385,-1960l-11 -31c-43,-125 -68,-210 -75,-257 -7,-47 6,-99 37,-155 32,-56 78,-95 140,-117 52,-18 102,-11 151,21 48,32 86,88 115,170 29,82 63,233 102,451 56,-229 146,-434 271,-615 125,-180 256,-295 394,-343 122,-43 239,-39 352,12 113,52 191,138 234,260 114,325 81,669 -98,1030 -178,362 -401,589 -667,682 -123,43 -216,26 -278,-50zm513 -1569c-132,46 -262,227 -390,540 -127,313 -167,538 -119,676 13,35 43,60 89,75 48,14 97,13 146,-4 138,-49 261,-204 369,-468 109,-263 130,-489 64,-676 -21,-62 -47,-104 -77,-124 -31,-21 -58,-27 -82,-19z"/>
  <path class="fil5" d="M12681 6917c-397,-35 -669,-220 -843,-488 -120,-186 -179,-343 -204,-580l-633 48c41,327 -2,648 -130,905 -138,278 -372,480 -702,542 -27,5 -49,9 -65,11 -350,45 -673,-69 -928,-287 -202,-173 -361,-412 -454,-689l0 0c-728,200 -1225,467 -1747,846 -1135,822 -1878,2092 -1736,3774 300,2346 2342,3182 5385,3100 1839,-234 3718,-1113 4432,-1809 1565,-1523 1343,-3043 213,-4625 -414,-580 -895,-926 -1579,-1292l0 0c-87,129 -193,245 -314,336 -198,148 -434,231 -695,208z"/>
  <path class="fil1" d="M12089 13955c73,309 111,566 99,747 -79,113 -247,116 -467,53 8,-127 -126,-747 -242,-1102 -186,-565 399,-549 464,-306l146 608z"/>
  <path class="fil1" d="M15116 12587c193,490 321,899 328,1161 -67,120 -234,139 -460,97 -6,-234 -145,-678 -349,-1197l481 -61z"/>
  <path class="fil1" d="M7240 13293c-182,500 -514,1521 -480,1748 63,66 269,180 432,145 114,-273 375,-1269 544,-1712 111,-288 -320,-449 -496,-181z"/>
  <path class="fil1" d="M9432 14134c-182,500 -277,562 -243,789 64,66 288,95 451,60 126,-283 122,-328 294,-800l-502 -49z"/>
  <path class="fil1" d="M6886 14844c-463,166 -873,325 -1058,461 -52,82 -46,302 156,222 248,-97 552,-238 931,-372l-29 -311z"/>
  <path class="fil1" d="M6790 14825c-150,469 -269,817 -274,1047 -61,216 135,260 234,197 98,-261 163,-635 305,-1077l-265 -167z"/>
  <path class="fil1" d="M7045 14851c298,389 409,847 493,1056 1,76 -48,208 -224,153 -185,-226 -479,-1105 -554,-1019l285 -190z"/>
  <path class="fil1" d="M9394 14652c-463,166 -874,325 -1059,461 -51,83 -46,302 156,223 249,-97 552,-239 931,-373l-28 -311z"/>
  <path class="fil1" d="M9298 14634c-150,468 -270,817 -274,1046 -61,217 135,261 233,198 98,-261 163,-635 305,-1077l-264 -167z"/>
  <path class="fil1" d="M9552 14659c298,389 409,847 493,1057 1,75 -48,207 -224,153 -185,-227 -478,-1105 -554,-1019l285 -191z"/>
  <path class="fil1" d="M11852 14514c-248,425 -461,811 -515,1034 13,96 158,261 262,70 128,-234 270,-537 475,-884l-222 -220z"/>
  <path class="fil1" d="M11767 14562c185,455 318,799 461,978 93,205 271,113 306,1 -92,-262 -282,-591 -458,-1021l-309 42z"/>
  <path class="fil1" d="M11978 14418c478,107 858,387 1056,493 50,58 96,190 -73,261 -287,-54 -1076,-539 -1079,-425l96 -329z"/>
  <path class="fil1" d="M15058 13637c-248,425 -461,810 -515,1033 13,96 158,261 262,71 128,-235 270,-538 475,-884l-222 -220z"/>
  <path class="fil1" d="M14973 13685c185,455 318,799 461,978 93,205 271,113 307,1 -93,-263 -283,-592 -458,-1021l-310 42z"/>
  <path class="fil1" d="M15184 13541c478,106 858,386 1056,493 50,57 97,190 -73,261 -287,-55 -1076,-540 -1079,-425l96 -329z"/>
  <path class="fil3" d="M11102 18166c-10,-32 -10,-60 1,-84 33,-76 127,-172 282,-285 156,-115 290,-152 404,-113 49,16 82,44 99,82 18,38 17,79 -1,121 -101,235 -691,587 -785,279z"/>
  <path class="fil1" d="M10157 9492c467,35 1269,-14 2003,-110 699,-92 1288,-200 1553,-369 42,-84 18,-188 -51,-303 -49,-82 -173,-44 -173,-44 -265,145 -802,225 -1375,300 -709,93 -1454,139 -1929,107 -89,-5 -130,33 -165,129 -69,190 -23,279 137,290z"/>
 </g>
</svg>
