<svg width="206" height="194" viewBox="0 0 206 194" fill="none" xmlns="http://www.w3.org/2000/svg">
<g clip-path="url(#clip0_2_98)">
<path d="M129.22 37.1C124.44 36.67 121.16 34.45 119.07 31.22C117.63 28.99 116.91 27.09 116.61 24.24L108.99 24.81C109.49 28.75 108.97 32.61 107.43 35.71C105.76 39.05 102.95 41.49 98.97 42.24C98.65 42.3 98.39 42.34 98.19 42.37C93.98 42.9 90.09 41.54 87.02 38.91C84.59 36.83 82.68 33.95 81.55 30.62C72.79 33.02 66.81 36.24 60.52 40.8C46.86 50.7 37.92 65.98 39.63 86.24C43.24 114.48 67.82 124.55 104.46 123.56C126.6 120.74 149.21 110.16 157.81 101.78C176.65 83.45 173.97 65.15 160.38 46.1C155.39 39.11 149.6 34.96 141.36 30.54C140.32 32.1 139.04 33.49 137.58 34.59C135.2 36.38 132.36 37.38 129.22 37.1Z" fill="#38AC51"/>
<path d="M129.14 37.17C124.36 36.74 121.08 34.52 118.99 31.29C117.55 29.05 116.83 27.16 116.53 24.31L108.91 24.88C109.41 28.82 108.89 32.68 107.35 35.77C105.68 39.12 102.87 41.55 98.89 42.31C98.57 42.37 98.31 42.41 98.11 42.44C93.9 42.97 90.01 41.6 86.94 38.98C84.51 36.9 82.6 34.02 81.47 30.69C72.71 33.09 66.73 36.3 60.44 40.87C46.78 50.77 37.84 66.05 39.55 86.3C43.16 114.55 67.74 124.62 104.38 123.63C126.52 120.81 149.13 110.22 157.73 101.85C176.57 83.52 173.89 65.22 160.3 46.17C155.31 39.18 149.52 35.02 141.28 30.61C140.24 32.17 138.96 33.56 137.5 34.65C135.12 36.44 132.28 37.44 129.14 37.17ZM116.26 19.86C117.01 11.19 122.97 6.08 131.5 6.83C135.67 7.19 139.76 9.1 142.22 12.37C144.13 14.92 144.81 18.21 144.52 21.54C144.39 22.93 144.1 24.33 143.66 25.69L144.27 25.9C178.66 43.94 186.85 84.96 160.7 105.92C136.07 124 108.52 131.71 79.94 126.92C52.9 122.4 33.59 109.28 34.19 78.99C34.69 53.73 54.74 34.62 80.54 26.19C80.34 21.32 83.28 17.18 87.37 14.7C89.02 13.69 90.85 12.96 92.72 12.57C94.62 12.17 96.59 12.11 98.5 12.46C102.39 13.18 105.85 15.53 107.69 20.03C110.36 19.57 116.26 19.86 116.26 19.86ZM93.06 17.14C79.46 20.14 85.11 39.8 97.69 38.2C109.47 35.9 108.93 13.4 93.06 17.14ZM122.2 29.93C132.19 42.09 146.21 23.07 138.68 14.43C136.48 11.49 131.15 10.08 127.69 10.93C119.45 13.15 118.67 24.65 122.2 29.93Z" fill="#2B2A29"/>
<path fill-rule="evenodd" clip-rule="evenodd" d="M96.48 20.96C99.1 20.62 101.5 22.48 101.83 25.1C102.17 27.73 99.38 30.93 96.76 31.26C94.14 31.59 91.85 29.72 91.52 27.1C91.19 24.48 93.86 21.29 96.48 20.96Z" fill="#2B2A29"/>
<path fill-rule="evenodd" clip-rule="evenodd" d="M131.39 16.11C138.9 15.16 137.54 26.27 130.74 26.48C129.31 26.52 127.26 25.54 126.56 21.97C125.95 18.86 128.78 16.44 131.39 16.11Z" fill="#2B2A29"/>
<path d="M121.95 121.91C122.83 125.62 123.29 128.71 123.14 130.89C122.19 132.25 120.17 132.29 117.52 131.53C117.62 130 116.01 122.53 114.6 118.27C112.36 111.46 119.4 111.66 120.2 114.58L121.95 121.91Z" fill="#2B2A29"/>
<path d="M158.39 105.43C160.72 111.34 162.26 116.25 162.35 119.41C161.53 120.86 159.52 121.08 156.81 120.58C156.73 117.75 155.06 112.42 152.6 106.17L158.39 105.43Z" fill="#2B2A29"/>
<path d="M63.58 113.93C61.38 119.95 57.38 132.25 57.79 134.98C58.56 135.77 61.03 137.15 62.99 136.72C64.36 133.43 67.51 121.45 69.55 116.11C70.88 112.64 65.69 110.7 63.58 113.93Z" fill="#2B2A29"/>
<path d="M89.96 124.06C87.77 130.08 86.63 130.83 87.04 133.56C87.8 134.35 90.5 134.7 92.46 134.27C93.98 130.87 93.94 130.33 96.01 124.65L89.96 124.06Z" fill="#2B2A29"/>
<path d="M59.32 132.6C53.74 134.6 48.8 136.51 46.57 138.15C45.95 139.14 46.02 141.78 48.45 140.83C51.44 139.66 55.09 137.96 59.66 136.35L59.32 132.6Z" fill="#2B2A29"/>
<path d="M58.16 132.38C56.35 138.02 54.92 142.21 54.86 144.97C54.13 147.59 56.49 148.11 57.68 147.35C58.85 144.21 59.64 139.71 61.34 134.39L58.16 132.38Z" fill="#2B2A29"/>
<path d="M61.22 132.68C64.81 137.37 66.15 142.88 67.16 145.4C67.17 146.31 66.58 147.9 64.47 147.25C62.24 144.52 58.7 133.94 57.79 134.98L61.22 132.68Z" fill="#2B2A29"/>
<path d="M89.5 130.29C83.93 132.29 78.98 134.21 76.76 135.85C76.14 136.84 76.2 139.48 78.64 138.53C81.63 137.35 85.28 135.65 89.85 134.04L89.5 130.29Z" fill="#2B2A29"/>
<path d="M88.35 130.07C86.54 135.71 85.1 139.91 85.05 142.67C84.31 145.28 86.67 145.81 87.86 145.05C89.04 141.91 89.82 137.4 91.53 132.08L88.35 130.07Z" fill="#2B2A29"/>
<path d="M91.41 130.38C95 135.06 96.33 140.58 97.35 143.1C97.35 144.01 96.76 145.59 94.65 144.94C92.42 142.21 88.89 131.64 87.98 132.67L91.41 130.38Z" fill="#2B2A29"/>
<path d="M119.1 128.63C116.11 133.75 113.55 138.39 112.89 141.07C113.05 142.23 114.8 144.22 116.05 141.92C117.59 139.1 119.3 135.45 121.77 131.29L119.1 128.63Z" fill="#2B2A29"/>
<path d="M118.07 129.21C120.3 134.69 121.9 138.83 123.63 140.98C124.74 143.46 126.89 142.34 127.31 141C126.2 137.84 123.91 133.88 121.8 128.7L118.07 129.21Z" fill="#2B2A29"/>
<path d="M120.61 127.48C126.37 128.76 130.94 132.13 133.33 133.41C133.92 134.11 134.49 135.7 132.45 136.56C128.99 135.9 119.49 130.06 119.46 131.44L120.61 127.48Z" fill="#2B2A29"/>
<path d="M157.69 118.07C154.71 123.18 152.14 127.83 151.49 130.51C151.65 131.67 153.4 133.65 154.65 131.36C156.19 128.54 157.9 124.89 160.36 120.72L157.69 118.07Z" fill="#2B2A29"/>
<path d="M156.67 118.64C158.9 124.13 160.5 128.27 162.23 130.42C163.34 132.89 165.49 131.78 165.91 130.44C164.79 127.27 162.51 123.31 160.4 118.14L156.67 118.64Z" fill="#2B2A29"/>
<path d="M159.21 116.91C164.97 118.19 169.54 121.57 171.93 122.85C172.52 123.54 173.09 125.14 171.05 125.99C167.59 125.33 158.09 119.5 158.06 120.87L159.21 116.91Z" fill="#2B2A29"/>
<path d="M94.46 177.25C93.59 178.89 92.56 180.25 91.36 181.34C89.96 182.61 88.47 183.32 86.9 183.47C85.97 183.57 84.97 183.22 83.92 182.44C82.86 181.66 82.22 180.36 82 178.55C81.84 177.27 81.96 175.29 82.37 172.63C82.75 170.43 82.86 168.78 82.73 167.67C83.1 166.71 83.8 166.18 84.83 166.08C85.53 166.01 86.12 166.16 86.59 166.54C87.05 166.91 87.31 167.31 87.37 167.73C87.46 168.5 87.29 169.62 86.86 171.09C86.61 171.96 86.38 173.2 86.16 174.77C85.94 176.35 85.86 177.36 85.91 177.79C86.09 179.23 86.51 179.91 87.17 179.84C88.22 179.74 89.54 178.69 91.11 176.72C92.68 174.74 93.63 172.78 93.94 170.83C94 170.5 94.05 170.19 94.11 169.9V169.85C94.11 169.62 94.16 169.4 94.25 169.2C94.48 168.19 94.71 167.48 94.95 167.06C95.3 166.45 95.87 166.1 96.65 166.03C97.91 165.9 98.61 166.47 98.77 167.71C98.79 167.9 98.73 168.28 98.59 168.85C98.45 169.41 98.33 169.91 98.22 170.36C98.15 174.01 98.39 179.95 100.91 182.5C101.72 183.19 101.72 184.31 100.92 185.01C100.11 185.71 98.81 185.73 98 185.04C95.93 182.94 94.92 180.16 94.46 177.25Z" fill="#2B2A29" stroke="#2B2A29" stroke-width="0.3" stroke-linejoin="round"/>
<path d="M22.48 169.83C22.28 170.29 22.09 170.76 21.9 171.23C21.17 173.02 20.47 174.57 19.8 175.89C19.58 176.18 19.28 176.36 18.87 176.41C18.46 176.48 18.13 176.33 17.79 176.34C15.38 176.45 16.25 175.16 16.68 173.96L19.18 169.15C17.93 169.38 16.29 169.91 14.27 170.73C12.15 171.58 6.46001 175.61 5.66001 175.79C4.91001 175.96 2.13001 174.58 3.53001 172.69C3.96001 172.11 7.38001 170.12 9.04001 169.23C10.7 168.34 12.52 167.67 14.5 167.22L18.05 166.36C17.61 165.59 16.79 164.45 15.6 162.96C14.1 161.05 13.23 159.75 13 159.08C12.77 158.4 12.74 157.83 12.9 157.36C13.07 156.91 13.39 156.56 13.88 156.34C14.37 156.11 14.79 156.05 15.15 156.17C15.32 156.23 15.61 156.44 16.02 156.82C16.43 157.19 16.7 157.53 16.81 157.81C18.66 161.44 20.04 163.84 20.93 165.01C21.57 163.43 21.98 162.18 22.15 161.23C22.2 160.98 22.3 160.62 22.46 160.16C22.66 159.6 23.03 159.23 23.56 159.05C24.1 158.86 24.65 158.87 25.22 159.06C25.88 159.28 26.29 159.55 26.43 159.88C26.57 160.2 26.52 160.7 26.29 161.35C26.25 161.45 25.93 162.19 25.32 163.56C24.87 164.56 24.62 165.15 24.55 165.33L24.26 166.15C25.11 165.86 26.36 165.28 28.03 164.4C30.69 162.99 32.37 162.16 33.07 161.92C33.76 161.67 35.9 160.8 36.2 160.9C37.31 161.27 37.4 164.03 35.38 164.64C33.21 165.29 33.12 165.59 31.14 166.53L30.64 166.77C28.96 167.55 27.4 168.2 25.94 168.74C26.71 169.66 27.82 171.24 29.29 173.46C29.56 173.87 29.93 174.39 30.41 175.03C31.45 176.46 31.85 177.54 31.59 178.28C31.17 179.45 30.42 179.84 29.34 179.48C28.33 179.15 26.71 176.83 24.47 172.54L23.36 170.45C23.21 170.18 22.92 169.98 22.48 169.83Z" fill="#2B2A29" stroke="#2B2A29" stroke-width="0.3" stroke-linejoin="round"/>
<path d="M40.8 169.98C43.34 167.74 45.75 166.75 48.04 166.98C49.54 167.14 50.76 167.71 51.69 168.7C52.61 169.68 53.02 170.75 52.9 171.9C52.63 174.58 50.93 176.92 47.8 178.92C44.68 180.92 41.83 181.79 39.27 181.52C37.84 181.38 36.81 180.71 36.19 179.5C35.57 178.31 35.36 176.68 35.57 174.62C35.94 171.11 36.96 167.66 38.62 164.26C38.78 163.94 38.91 163.63 39.04 163.32C39.2 162.91 39.64 162.61 40.37 162.4C41.11 162.21 41.63 162.12 41.96 162.15C42.31 162.19 42.62 162.37 42.86 162.69C43.11 163.01 43.21 163.38 43.17 163.78C43.14 164.08 42.83 164.92 42.25 166.3C41.44 168.19 40.96 169.41 40.8 169.98ZM40.02 173.63C39.88 174.2 39.78 174.72 39.73 175.17C39.6 176.47 39.68 177.27 39.97 177.59C40.26 177.9 40.55 178.07 40.85 178.1C41.81 178.2 43.27 177.72 45.22 176.67C47.18 175.62 48.24 174.33 48.4 172.81C48.47 172.15 48.35 171.61 48.03 171.17C47.72 170.74 47.3 170.5 46.77 170.44C44.99 170.26 43.16 171.03 41.28 172.78C40.65 173.35 40.23 173.64 40.02 173.63Z" fill="#2B2A29" stroke="#2B2A29" stroke-width="0.3" stroke-linejoin="round"/>
<path fill-rule="evenodd" clip-rule="evenodd" d="M59.71 166.15C58.82 169.62 57.51 175.91 59.5 179.07C60.14 179.9 59.89 180.99 58.94 181.52C58 182.04 56.72 181.79 56.08 180.96C53.19 176.39 54.42 170.23 55.67 165.35C55.89 164.4 56.97 163.8 58.09 164.02C59.21 164.24 59.93 165.2 59.71 166.15Z" fill="#2B2A29" stroke="#2B2A29" stroke-width="0.3" stroke-linejoin="round"/>
<path fill-rule="evenodd" clip-rule="evenodd" d="M77.8 162.71C70.1 162.6 69.55 164.48 67.49 170.7C70.04 168.46 72.45 167.47 74.73 167.7C76.23 167.86 77.45 168.43 78.38 169.42C79.31 170.4 79.72 171.47 79.6 172.62C79.32 175.3 77.62 177.64 74.49 179.64C71.37 181.64 68.53 182.51 65.97 182.24C64.53 182.1 63.51 181.43 62.89 180.22C62.27 179.03 62.06 177.4 62.27 175.34C62.63 171.84 63.65 168.4 65.31 165.01C66.34 162.6 67.87 161.38 70.48 160.14C72.32 159.27 79.62 158.14 79.75 161.36C79.8 162.39 78.87 162.7 77.8 162.71ZM66.72 174.35C66.57 174.92 66.48 175.44 66.43 175.89C66.3 177.19 66.37 177.99 66.66 178.31C66.95 178.62 67.25 178.79 67.55 178.82C68.51 178.92 69.97 178.44 71.92 177.39C73.88 176.34 74.94 175.05 75.1 173.53C75.17 172.87 75.04 172.33 74.73 171.89C74.42 171.46 74 171.22 73.47 171.16C71.69 170.98 69.86 171.75 67.97 173.5C67.35 174.07 66.92 174.36 66.72 174.35Z" fill="#2B2A29" stroke="#2B2A29" stroke-width="0.3" stroke-linejoin="round"/>
<path d="M116.07 175.86C115.34 177.84 114.37 179.51 113.15 180.85C111.89 182.24 110.47 183.1 108.92 183.41C108 183.59 106.98 183.34 105.85 182.67C104.72 181.99 103.96 180.76 103.56 178.98C103.28 177.72 103.21 175.74 103.36 173.05C103.52 170.83 103.47 169.17 103.23 168.08C103.51 167.09 104.15 166.49 105.17 166.29C105.86 166.15 106.46 166.25 106.96 166.58C107.46 166.9 107.76 167.28 107.85 167.69C108.02 168.44 107.96 169.57 107.68 171.08C107.51 171.98 107.4 173.23 107.34 174.82C107.27 176.41 107.29 177.42 107.38 177.84C107.7 179.26 108.18 179.89 108.84 179.76C109.88 179.56 111.08 178.39 112.46 176.27C113.83 174.15 114.58 172.1 114.7 170.14C114.83 168.22 115.04 166.93 115.34 166.29C115.63 165.64 116.16 165.25 116.93 165.09C118.17 164.85 118.93 165.34 119.2 166.57C119.24 166.75 119.22 167.13 119.14 167.71L119.09 168.03C119.34 171.6 120.09 177.97 122.98 180.38C123.85 180.99 123.97 182.1 123.23 182.88C122.5 183.66 121.2 183.8 120.33 183.19C118.09 181.32 116.82 178.68 116.07 175.86Z" fill="#2B2A29" stroke="#2B2A29" stroke-width="0.3" stroke-linejoin="round"/>
<path d="M106.76 163.29C106.66 162.96 106.66 162.67 106.77 162.42C107.11 161.63 108.08 160.65 109.68 159.48C111.29 158.3 112.67 157.91 113.84 158.32C114.34 158.49 114.69 158.77 114.86 159.17C115.05 159.56 115.04 159.98 114.85 160.41C113.81 162.83 107.73 166.46 106.76 163.29Z" fill="#2B2A29" stroke="#2B2A29" stroke-width="0.3" stroke-linejoin="round"/>
<path d="M145.02 180.32C144.93 181.24 144.89 182.9 144.93 185.32C144.95 187.74 145 189.36 145.06 190.19C145.12 191 144.93 191.74 144.49 192.39C144.05 193.04 143.62 193.4 143.2 193.47C142.67 193.55 142.12 193.45 141.55 193.16C140.97 192.88 140.65 192.52 140.58 192.08C140.44 191.2 140.42 190.16 140.53 188.96C141.23 182.18 141.11 175.32 140.17 168.38L140.11 168.05C139.9 166.71 139.8 165.79 139.81 165.31C139.83 164.82 140.05 164.32 140.47 163.8C140.9 163.29 141.44 162.98 142.11 162.87C142.66 162.78 143.16 162.94 143.6 163.35C144.02 163.76 144.31 164.41 144.45 165.28C144.6 166.17 144.67 167.77 144.68 170.05C145.66 167.83 146.94 165.91 148.53 164.3C150.13 162.69 151.67 161.77 153.15 161.53C154.46 161.32 155.65 161.57 156.7 162.29C157.76 163.02 158.4 164.03 158.61 165.35C159.17 168.86 158.22 172.28 155.75 175.63C153.29 178.97 150.62 180.87 147.75 181.33C146.43 181.55 145.51 181.21 145.02 180.32ZM153.06 165.34C151.64 165.57 149.99 167.16 148.13 170.11C146.28 173.06 145.46 175.27 145.7 176.75C145.76 177.13 146.02 177.44 146.47 177.67C146.93 177.91 147.42 177.98 147.96 177.89C149.44 177.65 150.97 176.3 152.55 173.82C154.13 171.34 154.75 169.09 154.42 167.08C154.31 166.4 154.13 165.93 153.86 165.67C153.59 165.41 153.32 165.3 153.06 165.34ZM165.87 166.14C167.52 163.16 169.49 161.38 171.75 160.8C173.25 160.42 174.61 160.52 175.85 161.11C177.08 161.7 177.84 162.55 178.13 163.66C178.79 166.26 177.98 169.04 175.69 172.01C173.39 174.97 170.97 176.78 168.43 177.44C167 177.8 165.79 177.54 164.77 176.64C163.76 175.74 162.99 174.3 162.48 172.31C161.61 168.91 161.38 165.33 161.79 161.58C161.83 161.23 161.85 160.89 161.86 160.56C161.87 160.12 162.19 159.68 162.82 159.23C163.45 158.79 163.93 158.52 164.25 158.44C164.6 158.35 164.96 158.41 165.31 158.62C165.66 158.83 165.88 159.14 165.98 159.53C166.05 159.82 166.05 160.71 165.97 162.21C165.86 164.24 165.83 165.55 165.87 166.14ZM166.39 169.82C166.46 170.4 166.54 170.91 166.66 171.35C166.98 172.61 167.34 173.33 167.72 173.52C168.11 173.71 168.45 173.77 168.75 173.69C169.7 173.44 170.93 172.49 172.44 170.81C173.95 169.15 174.51 167.57 174.13 166.1C173.97 165.46 173.66 165 173.21 164.71C172.76 164.41 172.28 164.33 171.75 164.47C169.98 164.92 168.5 166.29 167.3 168.58C166.9 169.34 166.6 169.75 166.39 169.82ZM183.96 168.02C184.14 168.7 184.48 169.55 185 170.55C185.08 170.72 185.14 170.87 185.17 171C185.23 171.24 185.07 171.64 184.68 172.18C184.29 172.72 183.8 173.07 183.23 173.22C181.71 173.61 180.68 172.74 180.13 170.61C179.85 169.49 179.64 168.38 179.51 167.3C179.38 166.21 179.24 164.17 179.08 161.16C178.99 159.57 178.89 158.59 178.8 158.24C178.6 157.44 178.61 156.72 178.85 156.1C179.08 155.47 179.53 155.07 180.2 154.9C181 154.69 181.66 154.71 182.18 154.95C182.69 155.19 183 155.52 183.11 155.93C183.22 156.37 183.23 157.34 183.15 158.87C182.98 162.21 183.25 165.26 183.96 168.02ZM193.85 168.83C193.92 169.75 194.18 171.39 194.64 173.77C195.09 176.15 195.42 177.73 195.62 178.53C195.83 179.32 195.77 180.09 195.45 180.8C195.13 181.52 194.76 181.95 194.37 182.09C193.86 182.26 193.3 182.26 192.69 182.08C192.07 181.9 191.69 181.6 191.54 181.18C191.25 180.34 191.05 179.32 190.94 178.12C190.45 171.32 189.13 164.58 186.98 157.92L186.87 157.61C186.42 156.32 186.17 155.44 186.09 154.96C186.03 154.47 186.16 153.94 186.48 153.36C186.8 152.78 187.28 152.38 187.92 152.16C188.45 151.97 188.97 152.04 189.47 152.37C189.97 152.7 190.36 153.28 190.66 154.12C190.95 154.97 191.31 156.53 191.71 158.77C192.29 156.42 193.21 154.3 194.5 152.44C195.79 150.58 197.14 149.39 198.56 148.9C199.82 148.46 201.03 148.5 202.19 149.03C203.36 149.56 204.16 150.44 204.6 151.7C205.77 155.06 205.44 158.6 203.6 162.32C201.76 166.05 199.46 168.38 196.72 169.34C195.45 169.79 194.49 169.61 193.85 168.83ZM199.14 152.66C197.78 153.14 196.44 155 195.13 158.22C193.81 161.46 193.4 163.78 193.9 165.19C194.02 165.55 194.33 165.81 194.82 165.96C195.31 166.11 195.81 166.1 196.32 165.92C197.74 165.43 199.01 163.82 200.12 161.1C201.24 158.39 201.46 156.07 200.78 154.14C200.56 153.49 200.29 153.06 199.98 152.85C199.67 152.64 199.39 152.58 199.14 152.66Z" fill="#2B2A29" stroke="#2B2A29" stroke-width="0.3" stroke-linejoin="round"/>
<path d="M98.69 68.18C104.31 68.6 113.97 68.01 122.81 66.84C131.22 65.74 138.32 64.44 141.51 62.4C142 61.39 141.72 60.15 140.89 58.76C140.3 57.77 138.81 58.23 138.81 58.23C135.61 59.97 129.15 60.93 122.26 61.84C113.71 62.96 104.75 63.51 99.03 63.13C97.95 63.06 97.46 63.53 97.04 64.68C96.21 66.97 96.77 68.03 98.69 68.18Z" fill="#2B2A29"/>
</g>
<defs>
<clipPath id="clip0_2_98">
<rect width="206" height="194" fill="white"/>
</clipPath>
</defs>
</svg>
