<svg width="50" height="50" viewBox="0 0 50 50" fill="none" xmlns="http://www.w3.org/2000/svg">
<circle cx="25" cy="25" r="25" fill="white"/>
<path d="M12.9375 38.375C12.9375 38.375 10.625 38.375 10.625 36.0625C10.625 33.75 12.9375 26.8125 24.5 26.8125C36.0625 26.8125 38.375 33.75 38.375 36.0625C38.375 38.375 36.0625 38.375 36.0625 38.375H12.9375ZM24.5 24.5C26.3399 24.5 28.1045 23.7691 29.4056 22.4681C30.7066 21.167 31.4375 19.4024 31.4375 17.5625C31.4375 15.7226 30.7066 13.958 29.4056 12.6569C28.1045 11.3559 26.3399 10.625 24.5 10.625C22.6601 10.625 20.8955 11.3559 19.5944 12.6569C18.2934 13.958 17.5625 15.7226 17.5625 17.5625C17.5625 19.4024 18.2934 21.167 19.5944 22.4681C20.8955 23.7691 22.6601 24.5 24.5 24.5Z" fill="black"/>
</svg>
